<svg width="18" height="20" viewBox="0 0 18 20" fill="none" xmlns="http://www.w3.org/2000/svg">
    <path
        d="M5.352 18.242C5.78715 18.7922 6.34165 19.2364 6.97361 19.541C7.60558 19.8455 8.29849 20.0025 9 20C9.70152 20.0025 10.3944 19.8455 11.0264 19.541C11.6584 19.2364 12.2129 18.7922 12.648 18.242C10.2271 18.5702 7.77293 18.5702 5.352 18.242ZM15.75 7V7.704C15.75 8.549 15.99 9.375 16.442 10.078L17.55 11.801C18.561 13.375 17.789 15.514 16.03 16.011C11.4338 17.313 6.56625 17.313 1.97 16.011C0.211001 15.514 -0.560999 13.375 0.450001 11.801L1.558 10.078C2.01157 9.36936 2.25211 8.54537 2.251 7.704V7C2.251 3.134 5.273 0 9 0C12.727 0 15.75 3.134 15.75 7Z"
        fill="gray" />
</svg>
    