<svg width="14" height="14" viewBox="0 0 14 14" fill="none" xmlns="http://www.w3.org/2000/svg">
    <path
        d="M12.8333 4.76114V4.80372C12.8333 5.30539 12.8333 5.55681 12.7125 5.76214C12.5918 5.96747 12.3719 6.08939 11.9332 6.33381L11.4706 6.59047C11.7891 5.51247 11.8959 4.35397 11.935 3.36347L11.9408 3.23456L11.942 3.20422C12.3217 3.33606 12.5352 3.43464 12.6682 3.61897C12.8333 3.84822 12.8333 4.15272 12.8333 4.76114ZM1.16663 4.76114V4.80372C1.16663 5.30539 1.16663 5.55681 1.28738 5.76214C1.40813 5.96747 1.62804 6.08939 2.06671 6.33381L2.52988 6.59047C2.21079 5.51247 2.10404 4.35397 2.06496 3.36347L2.05913 3.23456L2.05854 3.20422C1.67821 3.33606 1.46471 3.43464 1.33171 3.61897C1.16663 3.84822 1.16663 4.15331 1.16663 4.76114Z"
        fill="#FFC700" />
    <path fill-rule="evenodd" clip-rule="evenodd"
        d="M9.55326 1.36906C8.70929 1.23073 7.85524 1.16303 7.00001 1.16664C5.95993 1.16664 5.10243 1.25822 4.44676 1.36906C3.78235 1.48106 3.45043 1.53706 3.17276 1.87889C2.89568 2.22072 2.91026 2.58997 2.93943 3.32847C3.04035 5.86481 3.58751 9.03347 6.56251 9.31347V11.375H5.72835C5.59354 11.3751 5.46293 11.4218 5.35871 11.5073C5.25449 11.5928 5.1831 11.7118 5.15668 11.844L5.04585 12.3958H3.50001C3.38398 12.3958 3.2727 12.4419 3.19065 12.5239C3.10861 12.606 3.06251 12.7173 3.06251 12.8333C3.06251 12.9493 3.10861 13.0606 3.19065 13.1427C3.2727 13.2247 3.38398 13.2708 3.50001 13.2708H10.5C10.616 13.2708 10.7273 13.2247 10.8094 13.1427C10.8914 13.0606 10.9375 12.9493 10.9375 12.8333C10.9375 12.7173 10.8914 12.606 10.8094 12.5239C10.7273 12.4419 10.616 12.3958 10.5 12.3958H8.95418L8.84335 11.844C8.81693 11.7118 8.74554 11.5928 8.64132 11.5073C8.5371 11.4218 8.40648 11.3751 8.27168 11.375H7.43751V9.31347C10.4125 9.03347 10.9603 5.86539 11.0606 3.32847C11.0898 2.58997 11.1049 2.22014 10.8273 1.87889C10.5496 1.53706 10.2177 1.48106 9.55326 1.36906Z"
        fill="#FFC700" />
</svg>

    