<svg width="20" height="21" viewBox="0 0 20 21" fill="#FFC700" xmlns="http://www.w3.org/2000/svg">
    <path
        d="M20 6.162V6.235C20 7.095 20 7.526 19.793 7.878C19.586 8.23 19.209 8.439 18.457 8.858L17.664 9.298C18.21 7.45 18.393 5.464 18.46 3.766L18.47 3.545L18.472 3.493C19.123 3.719 19.489 3.888 19.717 4.204C20 4.597 20 5.119 20 6.162ZM0 6.162V6.235C0 7.095 1.49012e-08 7.526 0.207 7.878C0.414 8.23 0.791 8.439 1.543 8.858L2.337 9.298C1.79 7.45 1.607 5.464 1.54 3.766L1.53 3.545L1.529 3.493C0.877 3.719 0.511 3.888 0.283 4.204C0 4.597 0 5.12 0 6.162Z"
        fill="#FFC700" />
    <path fill-rule="evenodd" clip-rule="evenodd"
        d="M9.99997 -1.26481e-06C11.784 -1.26481e-06 13.253 0.156999 14.377 0.346999C15.516 0.538999 16.085 0.634999 16.561 1.221C17.037 1.807 17.011 2.44 16.961 3.706C16.789 8.055 15.851 13.486 10.75 13.966V17.5H12.18C12.4111 17.5001 12.635 17.5803 12.8136 17.7269C12.9923 17.8735 13.1147 18.0774 13.16 18.304L13.35 19.25H16C16.1989 19.25 16.3897 19.329 16.5303 19.4697C16.671 19.6103 16.75 19.8011 16.75 20C16.75 20.1989 16.671 20.3897 16.5303 20.5303C16.3897 20.671 16.1989 20.75 16 20.75H3.99997C3.80106 20.75 3.61029 20.671 3.46964 20.5303C3.32899 20.3897 3.24997 20.1989 3.24997 20C3.24997 19.8011 3.32899 19.6103 3.46964 19.4697C3.61029 19.329 3.80106 19.25 3.99997 19.25H6.64997L6.83997 18.304C6.88527 18.0774 7.00765 17.8735 7.18631 17.7269C7.36497 17.5803 7.58888 17.5001 7.81997 17.5H9.24997V13.966C4.14997 13.486 3.21197 8.054 3.03997 3.706C2.98897 2.44 2.96397 1.806 3.43997 1.221C3.91497 0.634999 4.48397 0.538999 5.62297 0.346999C7.06979 0.109875 8.53386 -0.00619363 9.99997 -1.26481e-06ZM10.952 4.199L10.854 4.023C10.474 3.34 10.284 3 9.99997 3C9.71597 3 9.52597 3.34 9.14597 4.023L9.04797 4.199C8.93997 4.393 8.88597 4.489 8.80197 4.553C8.71697 4.617 8.61197 4.641 8.40197 4.688L8.21197 4.732C7.47397 4.899 7.10497 4.982 7.01697 5.264C6.92897 5.547 7.18097 5.841 7.68397 6.429L7.81397 6.581C7.95697 6.748 8.02897 6.831 8.06097 6.935C8.09297 7.039 8.08197 7.15 8.06097 7.373L8.04097 7.576C7.96497 8.361 7.92697 8.754 8.15597 8.928C8.38597 9.102 8.73197 8.943 9.42297 8.625L9.60097 8.543C9.79797 8.453 9.89597 8.408 9.99997 8.408C10.104 8.408 10.202 8.453 10.399 8.543L10.577 8.625C11.268 8.944 11.614 9.102 11.844 8.928C12.074 8.754 12.035 8.361 11.959 7.576L11.939 7.373C11.918 7.15 11.907 7.039 11.939 6.935C11.971 6.832 12.043 6.748 12.186 6.581L12.316 6.429C12.819 5.841 13.071 5.547 12.983 5.264C12.895 4.982 12.526 4.899 11.788 4.732L11.598 4.688C11.388 4.641 11.283 4.618 11.198 4.553C11.114 4.489 11.06 4.393 10.952 4.199Z"
        fill="#FFC700" />
</svg>
    