<svg width="22" height="16" viewBox="0 0 22 16" fill="none" xmlns="http://www.w3.org/2000/svg">
    <path
        d="M18.3031 1.337C16.9214 0.702568 15.4622 0.25303 13.9631 0C13.7721 0.329 13.5601 0.775 13.4111 1.125C11.8169 0.891673 10.1972 0.891673 8.60305 1.125C8.45405 0.775 8.23005 0.329 8.05005 0C6.54942 0.249391 5.08905 0.699072 3.70805 1.337C0.961053 5.391 0.218053 9.35 0.590053 13.255C2.19976 14.4366 3.99781 15.3373 5.90805 15.919C6.33697 15.3396 6.71695 14.7254 7.04405 14.083C6.41705 13.849 5.82405 13.563 5.25005 13.223C5.39905 13.117 5.54705 13 5.68505 12.883C9.14505 14.465 12.8921 14.465 16.3091 12.883C16.4581 13 16.5961 13.117 16.7441 13.223C16.1711 13.563 15.5771 13.849 14.9511 14.083C15.2778 14.7254 15.6575 15.3395 16.0861 15.919C17.997 15.3391 19.7954 14.4383 21.4041 13.255C21.8611 8.735 20.6821 4.807 18.3041 1.337M7.52005 10.846C6.48005 10.846 5.63105 9.901 5.63105 8.745C5.63105 7.589 6.45905 6.643 7.52105 6.643C8.57105 6.643 9.43105 7.588 9.40905 8.745C9.40905 9.901 8.57105 10.846 7.52005 10.846ZM14.4941 10.845C13.4541 10.845 12.6041 9.9 12.6041 8.744C12.6041 7.588 13.4321 6.642 14.4941 6.642C15.5441 6.642 16.4041 7.587 16.3831 8.744C16.3831 9.9 15.5551 10.844 14.4931 10.844"
        fill="white" fill-opacity="0.5" />
</svg>
    