<svg width="20" height="20" viewBox="0 0 20 20" fill="none" xmlns="http://www.w3.org/2000/svg">
    <path fill-rule="evenodd" clip-rule="evenodd"
        d="M10 20C5.286 20 2.929 20 1.464 18.535C0 17.072 0 14.714 0 10C0 5.286 0 2.929 1.464 1.464C2.93 0 5.286 0 10 0C14.714 0 17.071 0 18.535 1.464C20 2.93 20 5.286 20 10C20 14.714 20 17.071 18.535 18.535C17.072 20 14.714 20 10 20ZM10 15.75C10.1989 15.75 10.3897 15.671 10.5303 15.5303C10.671 15.3897 10.75 15.1989 10.75 15V9C10.75 8.80109 10.671 8.61032 10.5303 8.46967C10.3897 8.32902 10.1989 8.25 10 8.25C9.80109 8.25 9.61032 8.32902 9.46967 8.46967C9.32902 8.61032 9.25 8.80109 9.25 9V15C9.25 15.414 9.586 15.75 10 15.75ZM10 5C10.2652 5 10.5196 5.10536 10.7071 5.29289C10.8946 5.48043 11 5.73478 11 6C11 6.26522 10.8946 6.51957 10.7071 6.70711C10.5196 6.89464 10.2652 7 10 7C9.73478 7 9.48043 6.89464 9.29289 6.70711C9.10536 6.51957 9 6.26522 9 6C9 5.73478 9.10536 5.48043 9.29289 5.29289C9.48043 5.10536 9.73478 5 10 5Z"
        fill="white" fill-opacity="1" />
</svg>
    