<svg width="16" height="20" viewBox="0 0 16 20" fill="none" xmlns="http://www.w3.org/2000/svg">
    <path
        d="M1.67001 7.914L4.73201 3.771C6.71101 1.093 7.70101 -0.245999 8.62401 0.0370013C9.54701 0.320001 9.54701 1.962 9.54701 5.247V5.557C9.54701 6.742 9.54701 7.334 9.92601 7.705L9.94601 7.725C10.333 8.088 10.949 8.088 12.182 8.088C14.402 8.088 15.511 8.088 15.886 8.761L15.904 8.795C16.258 9.478 15.615 10.348 14.33 12.085L11.268 16.229C9.28801 18.907 8.29901 20.246 7.37601 19.963C6.45301 19.68 6.45301 18.038 6.45301 14.753V14.443C6.45301 13.258 6.45301 12.666 6.07401 12.295L6.05401 12.275C5.66701 11.912 5.05101 11.912 3.81801 11.912C1.59801 11.912 0.489005 11.912 0.115005 11.239C0.108469 11.2278 0.102135 11.2164 0.0960059 11.205C-0.257994 10.522 0.385006 9.653 1.67001 7.915"
        fill="#FFC700" />
</svg>
    