<svg width="10" height="13" viewBox="0 0 10 13" fill="none" xmlns="http://www.w3.org/2000/svg">
    <path
        d="M8.75 4.33333H8.125V3.09524C8.125 1.38667 6.725 0 5 0C3.275 0 1.875 1.38667 1.875 3.09524V4.33333H1.25C0.5625 4.33333 0 4.89048 0 5.57143V11.7619C0 12.4429 0.5625 13 1.25 13H8.75C9.4375 13 10 12.4429 10 11.7619V5.57143C10 4.89048 9.4375 4.33333 8.75 4.33333ZM5 9.90476C4.3125 9.90476 3.75 9.34762 3.75 8.66667C3.75 7.98571 4.3125 7.42857 5 7.42857C5.6875 7.42857 6.25 7.98571 6.25 8.66667C6.25 9.34762 5.6875 9.90476 5 9.90476ZM6.9375 4.33333H3.0625V3.09524C3.0625 2.03667 3.93125 1.17619 5 1.17619C6.06875 1.17619 6.9375 2.03667 6.9375 3.09524V4.33333Z"
        fill="white" fill-opacity="0.5" />
</svg>
    