<svg width="26" height="18" viewBox="0 0 26 18" fill="none" xmlns="http://www.w3.org/2000/svg">
    <path
        d="M13.2865 12.1384C13.2865 15.7286 10.7643 18 6.73333 18C2.5447 18 0.0225195 15.6309 0 11.6988H4.05351C4.05351 13.3351 5.24704 14.4342 6.98105 14.4342C8.35474 14.4342 9.14292 13.848 9.14292 12.8467C9.14292 12.0163 8.73757 11.6255 7.40892 11.2103L4.88673 10.4043C2.49967 9.64722 1.19353 7.93759 1.19353 5.64179C1.19353 2.24695 3.76076 0 7.65663 0C11.3724 0 13.8045 2.41791 13.827 6.15468H9.77347C9.77347 4.61601 8.80513 3.51696 7.40892 3.51696C6.08027 3.51696 5.29208 4.15197 5.29208 5.20217C5.29208 5.9593 5.76499 6.47219 6.80089 6.78969L9.45819 7.62008C11.9353 8.40163 13.2865 9.98915 13.2865 12.1384Z"
        fill="#A0FC2B" />
    <path d="M25.3469 17.7558H14.6502L17.5101 0.21981H21.6312L19.4018 13.7015H26L25.3469 17.7558Z"
        fill="#A0FC2B" />
</svg>