<svg width="20" height="20" viewBox="0 0 20 20" fill="none" xmlns="http://www.w3.org/2000/svg">
    <path
        d="M0 4.5C0 2.379 -5.96046e-08 1.318 0.659 0.659C1.318 -5.96046e-08 2.379 0 4.5 0C6.621 0 7.682 -5.96046e-08 8.341 0.659C9 1.318 9 2.379 9 4.5C9 6.621 9 7.682 8.341 8.341C7.682 9 6.621 9 4.5 9C2.379 9 1.318 9 0.659 8.341C-5.96046e-08 7.682 0 6.621 0 4.5ZM11 15.5C11 13.379 11 12.318 11.659 11.659C12.318 11 13.379 11 15.5 11C17.621 11 18.682 11 19.341 11.659C20 12.318 20 13.379 20 15.5C20 17.621 20 18.682 19.341 19.341C18.682 20 17.621 20 15.5 20C13.379 20 12.318 20 11.659 19.341C11 18.682 11 17.621 11 15.5ZM0 15.5C0 13.379 -5.96046e-08 12.318 0.659 11.659C1.318 11 2.379 11 4.5 11C6.621 11 7.682 11 8.341 11.659C9 12.318 9 13.379 9 15.5C9 17.621 9 18.682 8.341 19.341C7.682 20 6.621 20 4.5 20C2.379 20 1.318 20 0.659 19.341C-5.96046e-08 18.682 0 17.621 0 15.5ZM11 4.5C11 2.379 11 1.318 11.659 0.659C12.318 -5.96046e-08 13.379 0 15.5 0C17.621 0 18.682 -5.96046e-08 19.341 0.659C20 1.318 20 2.379 20 4.5C20 6.621 20 7.682 19.341 8.341C18.682 9 17.621 9 15.5 9C13.379 9 12.318 9 11.659 8.341C11 7.682 11 6.621 11 4.5Z"
        fill="#A0FC2B" />
</svg>
    