<svg width="20" height="20" viewBox="0 0 20 20" fill="none" xmlns="http://www.w3.org/2000/svg">
    <path fill-rule="evenodd" clip-rule="evenodd"
        d="M1.464 1.464C0 2.93 0 5.286 0 10C0 14.714 0 17.071 1.464 18.535C2.93 20 5.286 20 10 20C14.714 20 17.071 20 18.535 18.535C20 17.072 20 14.714 20 10C20 5.286 20 2.929 18.535 1.464C17.072 0 14.714 0 10 0C5.286 0 2.929 0 1.464 1.464ZM8.544 5.517C8.61189 5.44563 8.66506 5.36158 8.70048 5.26966C8.73589 5.17773 8.75285 5.07974 8.75039 4.98126C8.74793 4.88279 8.72609 4.78576 8.68613 4.69572C8.64618 4.60568 8.58887 4.52439 8.5175 4.4565C8.44613 4.38861 8.36208 4.33544 8.27016 4.30002C8.17824 4.26461 8.08024 4.24765 7.98176 4.25011C7.88329 4.25257 7.78626 4.27441 7.69622 4.31437C7.60618 4.35432 7.52489 4.41163 7.457 4.483L5.143 6.913L4.543 6.283C4.47584 6.20878 4.39451 6.14876 4.30379 6.10646C4.21307 6.06417 4.1148 6.04046 4.01478 6.03674C3.91476 6.03302 3.815 6.04935 3.72139 6.08478C3.62778 6.12022 3.5422 6.17403 3.46971 6.24305C3.39722 6.31207 3.33928 6.3949 3.2993 6.48666C3.25932 6.57842 3.23812 6.67726 3.23693 6.77734C3.23575 6.87743 3.25461 6.97674 3.2924 7.06942C3.3302 7.1621 3.38616 7.24628 3.457 7.317L4.6 8.517C4.67005 8.59052 4.75429 8.64905 4.84763 8.68904C4.94097 8.72903 5.04146 8.74965 5.143 8.74965C5.24454 8.74965 5.34503 8.72903 5.43837 8.68904C5.53171 8.64905 5.61595 8.59052 5.686 8.517L8.544 5.517ZM11 6.25C10.8011 6.25 10.6103 6.32902 10.4697 6.46967C10.329 6.61032 10.25 6.80109 10.25 7C10.25 7.19891 10.329 7.38968 10.4697 7.53033C10.6103 7.67098 10.8011 7.75 11 7.75H16C16.1989 7.75 16.3897 7.67098 16.5303 7.53033C16.671 7.38968 16.75 7.19891 16.75 7C16.75 6.80109 16.671 6.61032 16.5303 6.46967C16.3897 6.32902 16.1989 6.25 16 6.25H11ZM8.543 12.517C8.61384 12.4463 8.6698 12.3621 8.7076 12.2694C8.74539 12.1767 8.76425 12.0774 8.76307 11.9773C8.76188 11.8773 8.74068 11.7784 8.7007 11.6867C8.66072 11.5949 8.60278 11.5121 8.53029 11.443C8.4578 11.374 8.37222 11.3202 8.27861 11.2848C8.185 11.2494 8.08524 11.233 7.98522 11.2367C7.8852 11.2405 7.78693 11.2642 7.69621 11.3065C7.60549 11.3488 7.52416 11.4088 7.457 11.483L5.143 13.913L4.543 13.283C4.47584 13.2088 4.39451 13.1488 4.30379 13.1065C4.21307 13.0642 4.1148 13.0405 4.01478 13.0367C3.91476 13.033 3.815 13.0494 3.72139 13.0848C3.62778 13.1202 3.5422 13.174 3.46971 13.243C3.39722 13.3121 3.33928 13.3949 3.2993 13.4867C3.25932 13.5784 3.23812 13.6773 3.23693 13.7773C3.23575 13.8774 3.25461 13.9767 3.2924 14.0694C3.3302 14.1621 3.38616 14.2463 3.457 14.317L4.6 15.517C4.67005 15.5905 4.75429 15.649 4.84763 15.689C4.94097 15.729 5.04146 15.7497 5.143 15.7497C5.24454 15.7497 5.34503 15.729 5.43837 15.689C5.53171 15.649 5.61595 15.5905 5.686 15.517L8.543 12.517ZM11 13.25C10.8011 13.25 10.6103 13.329 10.4697 13.4697C10.329 13.6103 10.25 13.8011 10.25 14C10.25 14.1989 10.329 14.3897 10.4697 14.5303C10.6103 14.671 10.8011 14.75 11 14.75H16C16.1989 14.75 16.3897 14.671 16.5303 14.5303C16.671 14.3897 16.75 14.1989 16.75 14C16.75 13.8011 16.671 13.6103 16.5303 13.4697C16.3897 13.329 16.1989 13.25 16 13.25H11Z"
        fill="white" />
</svg>