<svg width="22" height="18" viewBox="0 0 22 18" fill="none" xmlns="http://www.w3.org/2000/svg">
    <path
        d="M19.7099 0.654509C19.7099 0.654509 21.6524 -0.102992 21.4899 1.73651C21.4364 2.49401 20.9509 5.14551 20.5729 8.01301L19.2779 16.508C19.2779 16.508 19.1699 17.7525 18.1984 17.969C17.2274 18.185 15.7704 17.2115 15.5004 16.995C15.2844 16.8325 11.4534 14.3975 10.1044 13.2075C9.7264 12.8825 9.2944 12.2335 10.1584 11.476L15.8244 6.06501C16.4719 5.41501 17.1194 3.90001 14.4214 5.74001L6.8664 10.88C6.8664 10.88 6.0029 11.4215 4.3844 10.9345L0.876403 9.85201C0.876403 9.85201 -0.418597 9.04051 1.7939 8.22901C7.1904 5.68601 13.8279 3.08901 19.7094 0.654009"
        fill="white" fill-opacity="0.5" />
</svg>

    