<svg width="12" height="11" viewBox="0 0 12 11" fill="none" xmlns="http://www.w3.org/2000/svg">
    <path
        d="M2.8824 3.4939L2.85858 3.65167H2.8824V3.4939ZM2.97769 3.53897L2.95387 3.69674H2.97769V3.53897ZM2.93003 3.51638L2.90621 3.67418H2.93003V3.51638ZM2.85858 3.47133L2.83477 3.44874V3.60652H2.85858V3.47133ZM4.62136 4.30533L4.81194 4.44057L4.8596 4.41801L5.074 4.10243C4.81194 4.07984 4.62136 4.3053 4.62136 4.3053V4.30533ZM2.81095 3.44877L2.78711 3.58401H2.81095V3.44877ZM5.19308 4.14756L5.00253 4.4631L5.02634 4.48569L5.40751 4.50829C5.40751 4.26031 5.19311 4.14761 5.19311 4.14761L5.19308 4.14756ZM4.97871 4.71107L5.09779 5.07172C5.33603 4.91392 5.38366 4.66598 5.38366 4.66598L5.00253 4.68857L4.97871 4.71107ZM2.35831 3.20083L2.3345 3.44877H2.50126V3.42621H2.47745V3.40362H2.4536L2.47745 3.35855L2.50126 3.24584L2.47745 3.22325V3.17821L2.50126 3.15562L2.52508 2.88511L2.40597 2.81748C2.45363 2.63714 2.57271 2.47937 2.57271 2.47937H2.50126C2.38216 2.61461 2.3345 2.79495 2.3345 2.79495C2.3345 2.79495 2.31068 3.08799 2.31068 3.13306C2.31068 3.20069 2.35834 3.20069 2.35834 3.20069L2.35831 3.20083ZM9.93358 6.31146C9.43334 6.31146 8.93307 6.15369 8.57575 5.74797V5.77053C8.36135 6.04101 8.12314 6.04101 8.02785 6.04101C7.93258 6.04101 7.6229 5.9058 7.50379 5.77053C7.38468 5.63527 7.38468 5.38735 7.38468 5.38735L6.90826 5.22955L6.3127 4.91397L6.21741 4.89141C6.02685 4.98155 5.78864 4.91397 5.57424 4.75614C5.55043 4.84631 5.43132 5.07172 5.28837 5.18442C5.14545 5.29713 4.8596 5.4549 4.64521 5.4549C4.43081 5.4549 3.95438 5.22952 3.81143 4.91392C3.66851 4.59834 3.81143 4.26023 3.81143 4.26023L3.57322 4.21516L3.47793 4.10249C3.47793 4.10249 3.19209 4.32789 2.8824 4.23772C2.57271 4.14756 2.31068 3.89961 2.23923 3.67421C2.19157 3.4488 2.26305 3.24593 2.28687 3.22339C2.23924 3.06559 2.23923 2.97542 2.23923 2.97542H2.21539V2.90779C1.90573 3.11066 1.54838 3.2008 1.16725 3.2008C0.738454 3.2008 0.333474 3.06556 0 2.86269C0.0476309 3.3586 0.190553 3.94466 0.381135 4.59834C0.643192 5.5 1.50075 5.79301 2.78711 5.99588C5.62187 6.42419 8.33753 8.47539 8.14695 9.7377C8.86162 9.17418 9.62389 8.34018 10.3862 7.10041C10.6959 6.62706 10.41 6.31146 9.93358 6.31146ZM3.04916 3.51638L3.0015 3.53897V3.7193L3.04916 3.69671V3.51638ZM8.52812 4.62091C8.55193 4.64347 8.57575 4.64347 8.59956 4.66598C8.74251 4.75612 8.81396 4.80122 8.8378 5.00409C8.86162 5.16186 8.81396 5.3873 8.69485 5.59017C9.36186 6.01842 10.2909 5.68031 10.6482 6.01842C10.5768 5.16186 9.24275 4.30533 8.52812 4.62088V4.62091ZM11.9584 1.32991C11.2438 0.85656 9.48097 0 5.97922 0C4.76431 0 3.73999 0.112704 2.93003 0.270478C3.12061 0.563519 3.2159 0.901657 3.2159 1.26228C3.2159 1.75819 3.02535 2.209 2.71563 2.54714C2.78711 2.56962 2.8824 2.59221 3.0015 2.61477L3.04916 2.50207C3.04916 2.50207 3.0968 2.50207 3.12061 2.52466C3.12061 2.41196 3.19209 2.41196 3.19209 2.41196C3.19209 2.41196 3.19209 2.38937 3.2159 2.38937C3.33501 2.41196 3.66851 2.56971 3.81143 2.63731C3.95438 2.70497 3.95438 2.72748 3.95438 2.72748C3.95438 2.72748 4.28786 2.72748 4.38315 2.70492C4.47844 2.70492 4.64521 2.63725 4.88342 2.56965C5.12163 2.50202 5.16926 2.47948 5.21692 2.47948C5.26455 2.47948 5.69335 2.50207 6.07448 2.54714C6.45562 2.59221 6.81297 2.72745 6.88441 2.77255L7.00352 2.79514L7.02736 2.72748L6.83678 2.65982C6.83678 2.65982 6.8606 2.54714 6.8606 2.52458C6.8606 2.50202 6.88444 2.47951 6.90826 2.47951C6.93207 2.47951 7.14647 2.52458 7.21792 2.54717C7.28939 2.56965 7.52761 2.72748 7.55142 2.72748C7.57527 2.72748 7.57527 2.75007 7.57527 2.75007C7.57527 2.79514 7.52761 2.88531 7.52761 2.88531C7.52761 2.88531 7.59908 2.9079 7.6229 2.93038C7.64671 2.95297 7.71819 2.99801 7.78963 3.06562C7.86111 3.11069 7.83729 3.17832 7.83729 3.17832L8.00406 3.3361V3.40376L8.40901 3.78696V3.80953L8.21843 3.92223C8.21843 3.92223 8.48048 3.89964 8.67104 3.98986C8.86162 4.08003 8.88544 4.12513 8.88544 4.1702C8.8378 4.19279 8.76633 4.21527 8.76633 4.21527C8.62341 4.26034 8.26609 4.48578 8.26609 4.48578V4.50834L8.45664 4.55341C8.67104 4.37307 9.0522 4.30547 9.33805 4.35054C10.3147 4.53088 10.9817 5.13949 11.1246 5.65794C11.1246 5.6805 11.1485 5.72557 11.1485 5.74808C12.1252 3.58415 12.0299 2.02883 11.9584 1.33005V1.32991ZM2.02484 6.67213C1.71515 6.67213 1.35783 6.78487 1.57223 7.10041C3.33501 9.96313 5.19308 10.6394 5.97922 11C6.33654 10.8422 6.90826 10.5943 7.59908 10.1434C8.00403 9.8955 7.9564 9.51229 7.86111 9.26435C7.36084 8.09221 4.62136 6.7623 2.02481 6.67211L2.02484 6.67213ZM3.71614 3.33607C3.6447 3.38114 3.57322 3.51638 3.59707 3.62911C3.62085 3.74181 3.6447 3.74181 3.71614 3.74181C3.59707 3.69674 3.62085 3.51638 3.71614 3.4037C3.78762 3.31353 3.85909 3.38111 3.85909 3.38111C3.85909 3.38111 3.78762 3.29094 3.71614 3.33604V3.33607ZM3.14443 2.63731C3.52559 2.68235 3.59707 2.75001 3.59707 2.75001C3.59707 2.75001 3.73999 2.72742 3.81143 2.72742C3.69233 2.63728 3.16827 2.47948 3.16827 2.47948C3.16827 2.47948 3.14443 2.54711 3.14443 2.63728V2.63731ZM2.97769 2.70494L3.26353 2.7726C3.28738 2.7726 3.45411 2.75001 3.45411 2.75001L3.0015 2.63731L2.97769 2.70494ZM4.5261 4.4406C4.35933 4.73364 4.47844 4.93651 4.47844 4.93651L4.69284 4.64347V4.5984L4.5261 4.4406ZM4.74047 3.20086L4.81194 3.22342C4.81194 3.22342 4.8596 3.22342 4.8596 3.17835V3.08821L4.78813 3.04314L4.69284 3.02055C4.71665 3.04314 4.71665 3.06562 4.71665 3.06562H4.74047C4.74047 3.04305 4.76431 3.04305 4.76431 3.06562C4.76431 3.06562 4.81194 3.08821 4.78813 3.15579C4.81194 3.17835 4.76431 3.20086 4.7405 3.20086H4.74047ZM8.33753 5.77053L8.24224 5.50003H8.21843L8.07551 5.748L8.09932 5.77056C8.21843 5.81563 8.33753 5.77056 8.33753 5.77056V5.77053ZM8.02785 3.78691C8.02785 3.78691 7.98022 3.87708 7.9564 3.89961C7.93256 3.9222 7.76582 3.94468 7.67053 3.96727C7.57524 4.01234 7.4085 4.07998 7.36084 4.12505C7.33702 4.14764 7.33702 4.21522 7.33702 4.23775C7.33702 4.23775 7.38468 4.26034 7.4085 4.26034L7.1941 4.44065L7.24173 4.48572L7.76582 4.64352C7.88492 4.55336 8.05166 4.53082 8.05166 4.53082C7.95637 4.48575 7.55142 4.32795 7.43231 4.28288C7.43231 4.28288 7.36084 4.26029 7.36084 4.23781V4.17017C7.36084 4.17017 7.67053 3.94474 8.14695 3.94474L8.21843 3.8095L8.02785 3.78691ZM8.14695 5.25209C8.02785 5.47749 8.05166 5.63527 8.05166 5.63527L8.1708 5.38732V5.34225C8.19461 5.34225 8.1708 5.29718 8.14695 5.25209ZM7.64671 4.73364L7.50379 4.68857L7.17029 5.04921L7.4085 5.11685C7.45616 4.93654 7.64671 4.73364 7.64671 4.73364ZM8.21843 5.13938L8.26606 5.20701L8.2899 5.18445L8.48046 4.95902V4.93645C8.38517 4.93645 8.21843 5.13933 8.21843 5.13933V5.13938ZM2.62037 3.35863L2.59655 3.6066H2.73948L2.76329 3.4488V3.53897H2.78711V3.40373H2.76329V3.31356L2.97769 3.42626L3.0015 3.47133L3.04916 3.51638H3.0968L3.12061 3.49381V3.47125C2.97769 3.47125 2.97769 3.40359 2.97769 3.40359C2.97769 3.40359 3.00153 3.24582 3.02535 3.20072C3.04916 3.15568 3.14446 3.17815 3.14446 3.17815L3.12061 3.15556H3.07298C3.02535 3.133 2.8824 3.04286 2.83477 3.02033V2.99776L2.85858 2.97517V2.885H2.8824C2.8824 2.86244 2.90624 2.86244 2.90624 2.83996C2.95387 2.83996 3.31119 2.7723 3.31119 2.7723L2.97769 2.70467V2.68216C2.8824 2.6596 2.81095 2.63709 2.76329 2.61453C2.64421 2.74976 2.59655 2.9301 2.59655 2.9301C2.59655 2.9301 2.57274 3.24565 2.57274 3.29075C2.54889 3.33582 2.62037 3.35841 2.62037 3.35841V3.35863ZM8.36135 5.40986L8.43283 5.7029C8.43283 5.7029 8.5043 5.63524 8.57575 5.54513C8.64722 5.45493 8.67104 5.36479 8.67104 5.36479L8.38517 5.38738L8.36135 5.40986ZM3.83525 3.78691H3.78762L3.66851 3.76432C3.54941 3.74176 3.59707 3.53891 3.59707 3.53891L3.45411 3.58398C3.40648 3.49384 3.19209 3.24587 3.19209 3.24587L3.14443 3.42621C3.16827 3.44877 3.28735 3.62908 3.31119 3.67415L3.23975 3.74178C3.23975 3.74178 3.2159 3.78685 3.2159 3.80944C3.2159 3.83201 3.19209 3.85452 3.19209 3.85452L3.0968 3.89956H3.07298L2.73948 3.65162V3.83195H2.76329C2.78711 3.877 2.83477 3.96719 2.95387 4.01229C3.04916 4.05733 3.16827 4.05733 3.2159 4.03485C3.26353 4.05742 3.28735 4.05742 3.31119 4.07992C3.40648 4.12499 3.4303 4.10249 3.4303 4.10249L3.57322 4.05742H3.59707L3.62085 4.03485L3.66851 3.94468C3.66851 3.94468 3.90672 3.96727 4.00202 3.96727C4.09731 3.83201 4.40699 3.62916 4.62139 3.6066C4.83579 3.6066 5.19311 3.65167 5.47895 3.92218C5.74098 4.19265 5.66953 4.55333 5.66953 4.55333L6.19359 4.7111L5.95538 4.55333C5.76482 4.10251 5.31221 3.69677 5.31221 3.69677C5.31221 3.69677 5.19311 3.67421 5.12163 3.67421C5.05019 3.65162 5.00253 3.60655 5.00253 3.60655C5.00253 3.60655 4.97871 3.58398 4.93105 3.51638L4.88342 3.42621C4.88342 3.42621 4.83576 3.38114 4.76428 3.33607C4.69284 3.291 4.43081 3.26841 4.28789 3.24587C4.14494 3.22331 4.14494 3.24587 4.14494 3.24587C4.54992 3.33607 4.66902 3.3586 4.69284 3.38114C4.69284 3.38114 4.71665 3.42621 4.74047 3.44877C4.40697 3.38114 4.09731 3.42621 4.02583 3.44877C4.07349 3.5164 4.07349 3.60657 4.02583 3.67418C3.9782 3.71925 3.83525 3.78691 3.83525 3.78691ZM8.59956 4.95904L8.40898 5.20699V5.22958H8.67104C8.7187 5.07178 8.59956 4.95904 8.59956 4.95904ZM4.57373 3.17829C4.57373 3.17829 4.59755 3.17829 4.64521 3.20088C4.69284 3.20088 4.71665 3.15581 4.71665 3.11072C4.71665 3.04305 4.64521 3.02055 4.64521 3.02055H4.59755L4.5261 3.04314L4.50226 3.20091H4.5261L4.57373 3.17835C4.54992 3.13328 4.54992 3.11069 4.54992 3.06564C4.54992 3.04305 4.59755 2.99798 4.62136 2.99798C4.62136 2.99798 4.66902 2.99798 4.64521 3.08818C4.64521 3.17832 4.57373 3.17832 4.57373 3.17832V3.17829ZM6.83678 2.93035C6.81297 2.88528 6.76531 2.88528 6.47946 2.84018C6.21741 2.8177 5.97922 2.79511 5.93156 2.79511C5.8839 2.79511 5.86009 2.8177 5.86009 2.8177C5.86009 2.8177 5.71716 2.90787 5.59806 2.97548C5.47895 3.04311 5.45514 3.06565 5.43132 3.11072C5.40751 3.13328 5.47895 3.22345 5.47895 3.22345L5.66953 3.44885C5.69335 3.44885 5.76482 3.4939 5.76482 3.4939C5.76482 3.4939 6.14596 3.47133 6.38417 3.44885H7.00355C7.02736 3.44885 7.00355 3.35869 6.95589 3.24595C6.90826 3.15579 6.83678 2.93041 6.83678 2.93041V2.93035ZM4.40697 2.72748C4.40697 2.72748 4.57373 2.81765 4.59755 2.81765C4.62136 2.81765 4.95487 2.93035 5.09779 2.97545C5.21692 3.02049 5.28837 2.97545 5.31219 2.97545C5.33603 2.97545 5.74098 2.75004 5.74098 2.75004C5.38366 2.61477 5.05016 2.52461 5.05016 2.52461C5.02634 2.52461 4.40697 2.72748 4.40697 2.72748ZM7.09881 4.50823L6.69386 4.84634L7.00352 4.93651L7.31321 4.62093L7.14644 4.55327L7.09881 4.50823ZM4.90724 3.26846C4.90724 3.26846 5.16926 3.26846 5.52658 3.3361C5.28837 3.17832 4.90724 3.08815 4.90724 3.08815V3.26846ZM5.78864 3.60657C5.93156 3.76437 6.07448 3.98978 6.07448 3.98978C6.3127 3.76437 6.81297 3.67421 7.45616 3.69674C6.55091 3.5164 5.78864 3.60657 5.78864 3.60657ZM7.14644 3.13322L7.02736 3.17829L7.17029 3.42624L7.64671 3.58404C7.45616 3.20083 7.14644 3.13319 7.14644 3.13319V3.13322ZM4.95487 5.11682L4.81194 4.77871H4.76428L4.5261 5.04921C4.69284 5.18445 4.95487 5.11685 4.95487 5.11685V5.11682ZM5.43132 3.71928C5.43132 3.71928 5.74098 3.74187 6.00301 4.05739L5.86009 4.07998L5.78864 4.05739C5.78864 4.05739 5.57424 3.80944 5.43132 3.71928Z"
        fill="white" fill-opacity="0.5" />
</svg>
    