<svg xmlns="http://www.w3.org/2000/svg" viewBox="0 0 256 256" class="title-icon" data-v-f971b94b="">
    <path
        d="m255.104 45.302-.454-4.97-4.516-3.163C231.162 24.07 195.021 8.712 130.425 8.712c-24.393 0-46.528 2.258-65.952 6.776C57.696 9.615 48.662 6 39.176 6 17.944 6 .328 23.167.328 44.849c0 6.776 1.806 13.101 4.968 18.973.903 33.429 11.293 68.209 31.62 103.446 33.429 56.466 69.116 73.181 86.282 80.86 1.355.449 2.258.902 3.161 1.353l4.518 2.26 4.517-2.26c.903-.45 2.259-.9 3.162-1.353 17.618-7.68 52.853-24.395 85.377-80.86 35.686-61.888 32.526-107.06 31.171-121.966zM39.627 16.843c15.468 0 28.008 12.539 28.008 28.006 0 15.468-12.54 28.007-28.008 28.007S11.62 60.317 11.62 44.849c.001-15.468 12.539-28.006 28.007-28.006zm34.783 55.56 8.584 2.26s-1.92.274-2.98.396l.269.057s-6.776 1.356-7.68 1.356c0 .451-.452.451-.452.9H71.7v1.807l-.451.453v.453c.903.45 3.613 2.257 4.518 2.71h.903l.452.453s-1.806-.453-2.259.451c-.452.903-.903 4.063-.903 4.063s0 1.356 2.711 1.356v.45l-.451.454h-.903v3.616l-.905.45v-3.612l.905-.453-.905-.903-.451-.904-4.065-2.259v1.806h.452v2.713h-.452v-1.807l-.451 3.163h-2.711l.451-4.97s-1.354-.453-.903-1.356c0-.904.452-7.227.452-7.227s.903-3.615 3.163-6.325c.903.45 2.258.903 4.065 1.356v.45l.448-1.357zm13.552 22.135c-1.355 0-1.807 0-2.258-2.257a5.049 5.049 0 0 1-.036-1.615c-.145.805-.575 3.931 1.391 4.325l2.258.453h.903s2.711-1.356 3.615-2.259a4.1 4.1 0 0 0 0-4.517c1.355-.453 7.228-1.356 13.552 0-.452-.453-.904-1.356-.904-1.356-.451-.45-2.711-.903-10.39-2.71 0 0 0-.453 2.71 0 2.71.454 7.679.904 9.034 1.807a16.335 16.335 0 0 1 2.259 1.806l.904 1.807c.903 1.355 1.355 1.809 1.355 1.809s.904.901 2.259 1.354c1.355 0 3.613.453 3.613.453s8.583 8.129 12.197 17.165l4.516 3.163-9.937-3.163s1.355-7.229-3.613-12.649c-5.421-5.422-12.197-6.323-16.263-6.323-4.065.45-9.938 4.514-11.745 7.226-1.806 0-6.324-.45-6.324-.45l-.904 1.806-.451.451h-.452l-2.711.903s-.451.453-2.257-.453c-.452-.45-.904-.45-1.807-.901-.903.451-3.161.451-4.969-.453-2.258-.904-3.162-2.71-3.613-3.616h-.451v-3.613l6.324 4.969h.452l1.806-.903s.452-.453.452-.903c0-.451.452-1.356.452-1.356l1.355-1.354c-.452-.903-2.71-4.517-3.162-4.97l.903-3.613s4.065 4.967 4.97 6.776l2.694-.897c.268-1.737 1.269-3.401 2.273-4.071 1.355-.903 2.711.903 2.711.903s-1.356-1.355-2.711.451c-1.807 2.259-2.258 5.875 0 6.775zm88.991 29.817v-.453l3.613-4.97s2.259 2.26 1.355 5.422h-4.968zm4.969 2.707s-.45 1.809-1.806 3.617c-1.356 1.806-2.713 3.159-2.713 3.159l-1.354-5.87.452-.454 5.421-.452zm-3.612-8.129-3.613 4.517-.453.453-.903-1.354s3.162-4.068 4.97-4.068v.452zm-4.97 10.841h.45l1.807 5.42s-2.257.906-4.517 0l-.453-.45 2.713-4.97zm-3.163 2.71s-.45-3.16 1.807-7.679c.45.903.903 1.807.45 1.807v.902l-2.257 4.97zm1.806-33.877c-9.033 0-14.908 4.513-14.908 4.513v1.356c0 .091.083.179.168.264.256.096.539.187.738.187l-.205.181c.331.164.655.272.655.272 2.26.904 9.938 4.066 11.745 4.97 0 0-3.162.453-5.419 2.259l-9.939-3.163-.903-.904 3.861-3.435a1.958 1.958 0 0 1-.533-.368c-.331-.124-.618-.264-.618-.264 0-.45 0-1.807.45-2.257.906-.905 4.068-2.259 5.875-3.163 1.808-.45 4.97-.903 5.42-1.356.45-.45 1.356-2.257 1.356-2.257l3.613.451-1.356 2.714zm-12.195 14.906 2.709.904s-3.613 4.063-4.516 7.679l-4.52-1.354 6.327-7.229zm-9.486 4.966-5.872-1.807 7.679-6.776.903.906 3.162 1.354-5.872 6.323zm8.582-24.841c-12.198-.453-21.682 1.354-26.2 5.87 0 0-2.71-4.517-5.421-7.677-.001 0 14.454-1.809 31.621 1.807zm-8.129-10.39 2.257-.906s5.872 1.356 9.485 9.035l-9.035-3.163-2.707-4.966zm-19.428 17.616-2.708.45-1.356-.45s-4.064-4.97-6.774-6.777c-.001 0 5.87.451 10.838 6.777zm-20.779-15.809v-3.616s7.228 1.809 11.746 4.97c-6.776-1.354-11.746-1.354-11.746-1.354zm39.751 3.613h-11.743c-4.516.451-11.745.9-11.745.9s-1.355-.9-1.807-.9l-3.613-4.519s-1.356-1.807-.903-2.257c.452-.905.903-1.356 3.161-2.712 2.259-1.354 4.97-3.161 4.97-3.161s.452-.453 1.355-.453 5.42.453 10.39.906c5.422.9 6.322.9 6.775 1.806 0 0 1.354 4.517 2.26 6.323.9 2.26 1.356 4.067.9 4.067zm-32.071-9.488c-.452 0-1.807.906-4.065 0-2.711-.901-9.034-3.161-9.487-3.161-.451 0-3.613-1.809-3.613-1.809s11.746-4.063 12.197-4.063c0 0 6.323 1.806 13.099 4.516 0 0-7.68 4.517-8.131 4.517zm-9.937 3.615c.452-1.356-.452-1.809-.452-1.809 0-.451-.451-.451-.451 0h-.452s0-.451-.452-.901l1.807.45 1.355.903v1.809c0 .901-.903.901-.903.901l-1.355-.45c.45.001 1.354-.45.903-.903zm-1.355-.903c0 .904-.452 1.807-1.354 1.807-.905-.451-1.356-.451-1.356-.451l-.904.451h-.451l.451-3.163.875-.29c.299-.329.679-.613.933-.613 0 0 .368.005.515.481.172.064 1.291.523 1.291 1.778zm.902 33.427h.904l2.71 6.776s-4.969 1.354-8.131-1.354l4.517-5.422zm-5.421 3.16s-2.258-4.063.903-9.937l3.163 3.161v.906l-4.066 5.87zm7.229-10.389-.903.453-3.613-2.709s3.613-4.519 8.583-4.066l-4.067 6.322zm2.709 5.423 7.228-.453s-.904 4.969-5.42 8.132l-2.26-7.227.452-.452zm.453-4.066-.453-.451 3.614-6.326s4.064 2.259 4.064 7.226l-7.225-.449zm-42.463-18.07.452-2.709v2.709h-.452zm1.355.454h-.451v-3.163l.451.451v2.712zm.452-2.263v3.164H71.7l.452-3.164zm.452 3.617.451-3.163v3.163h-.451zm.903.453.452-3.163v3.163h-.452zm12.197-18.975s-1.355-1.354-8.583-2.26c0-1.806.452-3.16.452-3.16s9.937 3.16 12.196 4.967c-1.355 0-4.065.453-4.065.453zm-20.328 2.71-.452 5.423-.451.453v.901l.451.453-.451 2.26-.452.901h.452v.453h.451v.453h-3.161l.451-4.969s-.903 0-.903-1.356c0-.903.452-6.776.452-6.776s.903-3.613 3.161-6.323h1.355s-2.258 3.16-3.161 6.776l2.258 1.351zm96.218 145.457c-13.102 9.036-23.941 14.005-30.717 17.166-14.907-7.229-50.143-20.778-83.57-78.147-4.066-6.326 2.71-8.583 8.583-8.583 49.239 1.807 101.185 28.458 110.673 51.947 1.807 4.97 2.71 12.647-4.969 17.617zm52.852-60.981c-14.455 24.842-28.911 41.557-42.463 52.852 3.613-25.297-47.883-66.403-101.638-74.986-24.393-4.066-40.656-9.939-45.625-28.01-3.614-13.096-6.324-24.842-7.228-34.781 6.325 4.063 14.003 6.776 22.134 6.776 7.228 0 14.004-1.807 19.875-5.873v1.354h.453s0 1.807.903 4.969c-.451.453-1.808 4.519-.903 9.036 1.355 4.516 6.323 9.486 12.196 11.292 5.873 1.807 11.294-2.71 11.294-2.71l1.806 2.26 4.519.901s-2.711 6.776 0 13.101c2.709 6.326 11.744 10.842 15.811 10.842 4.064 0 9.486-3.163 12.195-5.422 2.711-2.257 4.969-6.776 5.421-8.583 4.064 3.163 8.583 4.519 12.196 2.713l1.809.45 11.29 6.326 9.035 3.16s0 4.97 2.261 7.68c2.257 2.713 8.132 5.42 9.938 5.42s6.323 0 10.39-5.42v-.45c6.775 8.13 16.262 11.293 25.747 11.293 9.035-.002 14.458 6.32 8.584 15.81zm-32.073-30.268c2.26-4.066 3.162-8.583 2.713-11.745-.453-4.064-1.808-4.97-4.52-6.776-.45-.451-.903-.451-1.356-.904 13.552-6.323 38.85 10.842 40.206 28.008-6.775-6.776-24.395 0-37.043-8.583zm46.529 3.163c0-.453-.453-1.356-.453-1.807-2.71-10.39-15.359-22.587-33.881-26.201-5.42-.903-12.646.453-16.712 4.066l-3.613-.906v-.45s6.776-4.519 9.486-5.42c0 0 1.356-.453 2.257-.906 0-.901-.451-1.806-4.064-3.613-3.612-1.807-8.582-1.354-8.582-1.354l3.613-2.259v-.451l-7.68-7.682v-1.354l-3.16-3.161s.45-1.356-.906-2.262c-1.356-1.354-2.71-2.257-3.162-2.708-.451-.453-1.808-.906-1.808-.906s.906-1.806.906-2.709c0 0 0-.453-.452-.453-.454 0-4.97-3.16-6.323-3.613-1.356-.45-5.423-1.354-5.876-1.354-.45 0-.9.453-.9.904 0 .45-.453 2.709-.453 2.709l3.616 1.354-.456 1.356-2.257-.451c-1.356-.906-8.133-3.613-15.358-4.519-7.228-.9-15.359-1.354-16.262-1.354-.903 0-1.807.453-6.324 1.807-4.516 1.353-7.68 2.709-9.486 2.709-1.807.451-8.131.451-8.131.451s0-.451-2.711-1.807c-2.71-1.353-9.035-4.516-11.293-4.967-.452 0-.452.451-.452.451s-1.355 0-1.355 2.26c-.451-.451-1.354-.451-1.354-.451l-.905 2.257c-2.258-.451-4.064-.903-5.419-1.356 5.872-6.774 9.486-15.809 9.486-25.748 0-7.227-1.807-14.003-5.421-19.875 15.359-3.163 34.784-5.421 57.822-5.421 66.404 0 99.831 17.165 113.385 26.652 1.35 14.006 3.157 45.175-15.362 88.542z"></path>
</svg>