<svg width="12" height="14" viewBox="0 0 12 14" fill="none" xmlns="http://www.w3.org/2000/svg">
    <path fill-rule="evenodd" clip-rule="evenodd"
        d="M0.6 0.666626C0.44087 0.666626 0.288258 0.72984 0.175736 0.842362C0.0632141 0.954884 0 1.1075 0 1.26663V10.7293C0 10.8884 0.0632141 11.041 0.175736 11.1536C0.288258 11.2661 0.44087 11.3293 0.6 11.3293H3.344V13.3493C3.34426 13.4414 3.37176 13.5314 3.42306 13.6079C3.47435 13.6844 3.54714 13.744 3.63226 13.7792C3.71737 13.8144 3.811 13.8237 3.90135 13.8058C3.9917 13.7879 4.07474 13.7436 4.14 13.6786L6.49 11.3293H9.58533C9.74441 11.3292 9.89692 11.2658 10.0093 11.1533L11.824 9.33863C11.9366 9.22621 11.9999 9.0737 12 8.91463V1.26663C12 1.1075 11.9368 0.954884 11.8243 0.842362C11.7117 0.72984 11.5591 0.666626 11.4 0.666626H0.6ZM5.47933 4.13329C5.47933 4.00068 5.42666 3.87351 5.33289 3.77974C5.23912 3.68597 5.11194 3.63329 4.97933 3.63329C4.84672 3.63329 4.71955 3.68597 4.62578 3.77974C4.53201 3.87351 4.47933 4.00068 4.47933 4.13329V6.98129C4.47933 7.1139 4.53201 7.24108 4.62578 7.33485C4.71955 7.42861 4.84672 7.48129 4.97933 7.48129C5.11194 7.48129 5.23912 7.42861 5.33289 7.33485C5.42666 7.24108 5.47933 7.1139 5.47933 6.98129V4.13329ZM8.82333 4.13329C8.82333 4.00068 8.77065 3.87351 8.67689 3.77974C8.58312 3.68597 8.45594 3.63329 8.32333 3.63329C8.19073 3.63329 8.06355 3.68597 7.96978 3.77974C7.87601 3.87351 7.82333 4.00068 7.82333 4.13329V6.98129C7.82333 7.1139 7.87601 7.24108 7.96978 7.33485C8.06355 7.42861 8.19073 7.48129 8.32333 7.48129C8.45594 7.48129 8.58312 7.42861 8.67689 7.33485C8.77065 7.24108 8.82333 7.1139 8.82333 6.98129V4.13329Z"
        fill="white" fill-opacity="0.5" />
</svg>
    