<svg width="14" height="12" viewBox="0 0 14 12" fill="fill" xmlns="http://www.w3.org/2000/svg">
    <path fill-rule="evenodd" clip-rule="evenodd"
        d="M7.00001 0.666626C7.57001 0.666626 8.15468 0.681293 8.72134 0.705293L9.39068 0.737293L10.0313 0.775293L10.6313 0.815959L11.1793 0.858626C11.7741 0.903887 12.3339 1.15758 12.76 1.57503C13.1861 1.99247 13.4512 2.54689 13.5087 3.14063L13.5353 3.42396L13.5853 4.03063C13.632 4.65929 13.6667 5.34463 13.6667 5.99996C13.6667 6.65529 13.632 7.34063 13.5853 7.96929L13.5353 8.57596L13.5087 8.85929C13.4512 9.45313 13.186 10.0076 12.7597 10.4251C12.3335 10.8426 11.7736 11.0962 11.1787 11.1413L10.632 11.1833L10.032 11.2246L9.39068 11.2626L8.72134 11.2946C8.1479 11.3195 7.57399 11.3324 7.00001 11.3333C6.42603 11.3324 5.85212 11.3195 5.27868 11.2946L4.60934 11.2626L3.96868 11.2246L3.36868 11.1833L2.82068 11.1413C2.22589 11.096 1.66614 10.8423 1.24004 10.4249C0.813936 10.0074 0.548804 9.45303 0.491343 8.85929L0.464677 8.57596L0.414677 7.96929C0.363899 7.31404 0.33677 6.65717 0.333344 5.99996C0.333344 5.34463 0.36801 4.65929 0.414677 4.03063L0.464677 3.42396L0.491343 3.14063C0.548782 2.54699 0.813818 1.99266 1.23979 1.57523C1.66575 1.1578 2.22534 0.904037 2.82001 0.858626L3.36734 0.815959L3.96734 0.775293L4.60868 0.737293L5.27801 0.705293C5.85168 0.680444 6.4258 0.667552 7.00001 0.666626ZM5.66668 4.38329V7.61663C5.66668 7.92463 6.00001 8.11663 6.26668 7.96329L9.06668 6.34663C9.1276 6.31155 9.17821 6.26104 9.2134 6.20018C9.24859 6.13932 9.26712 6.07026 9.26712 5.99996C9.26712 5.92966 9.24859 5.8606 9.2134 5.79974C9.17821 5.73888 9.1276 5.68836 9.06668 5.65329L6.26668 4.03729C6.20585 4.00217 6.13685 3.98369 6.06661 3.9837C5.99638 3.98371 5.92738 4.00222 5.86657 4.03736C5.80575 4.07249 5.75526 4.12303 5.72017 4.18387C5.68508 4.24471 5.66663 4.31372 5.66668 4.38396V4.38329Z"
        fill="white" fill-opacity="0.5" />
</svg>
    